# 3ds Max Wavefront OBJ Exporter v0.97b - (c)2007 guruware
# File Created: 26.08.2016 10:29:27

mtllib Arrow_new.mtl

#
# object Cone001
#

v  35.9091 -0.0000 -17.9908
v  35.9091 17.9908 0.0000
v  78.1282 -0.0000 -0.0000
v  35.9091 -0.0000 17.9908
v  35.9091 -17.9908 -0.0000
v  -17.5603 0.0000 2.9405
v  -17.5603 2.9405 0.0000
v  -17.5603 0.0000 -2.9405
v  -17.5603 -2.9405 0.0000
v  39.0466 -0.0000 -7.2431
v  39.0466 7.2431 0.0000
v  39.0466 -7.2431 0.0000
v  39.0466 -0.0000 7.2431
v  16.8000 0.0000 -4.0172
v  16.8000 4.0172 0.0000
v  16.8000 -4.0172 0.0000
v  16.8000 0.0000 4.0172
# 17 vertices

vn 0.3920 -0.0000 -0.9200
vn 0.3920 0.9200 -0.0000
vn 0.2885 0.6770 -0.6770
vn 0.2885 -0.6770 -0.6770
vn 0.3920 -0.0000 0.9200
vn 0.2885 0.6770 0.6770
vn 0.3920 -0.9200 -0.0000
vn 0.2885 -0.6770 0.6770
vn -1.0000 0.0000 -0.0000
vn 1.0000 0.0000 -0.0000
vn -0.9243 -0.2698 0.2698
vn -0.9243 0.2698 0.2698
vn -0.9243 0.2698 -0.2698
vn -0.9243 -0.2698 -0.2698
vn -0.1020 0.7034 -0.7034
vn -0.1020 -0.7034 -0.7034
vn -0.1020 -0.7034 0.7034
vn -0.1020 0.7034 0.7034
vn -0.0222 0.7069 -0.7069
vn -0.0222 -0.7069 -0.7069
vn -0.0222 -0.7069 0.7069
vn -0.0222 0.7069 0.7069
# 22 vertex normals

vt 0.7500 0.0000 1.0000
vt 1.0000 0.0000 1.0000
vt 0.5000 1.0000 0.0000
vt 0.0000 0.0000 1.0000
vt 0.2500 0.0000 1.0000
vt 0.5000 0.0000 1.0000
vt 0.5000 0.0000 -0.2500
vt 0.0000 0.5000 -0.2500
vt 0.5000 1.0000 -0.2500
vt 1.0000 0.5000 -0.2500
# 10 texture coords

g Cone001
usemtl 01___Default
s 8
f 1/1/1 2/2/2 3/3/3 3/3/4 
f 2/4/2 4/5/5 3/3/6 3/3/3 
f 4/5/5 5/6/7 3/3/8 3/3/6 
f 5/6/7 1/1/1 3/3/4 3/3/8 
s 1
f 6/7/9 7/8/9 8/9/9 9/10/9 
f 3/3/10 3/3/10 3/3/10 3/3/10 
s off
f 2/8/11 1/9/11 10/9/11 11/8/11 
f 1/9/12 5/10/12 12/10/12 10/9/12 
f 5/10/13 4/7/13 13/7/13 12/10/13 
f 4/7/14 2/8/14 11/8/14 13/7/14 
f 11/8/15 10/9/15 14/9/15 15/8/15 
f 10/9/16 12/10/16 16/10/16 14/9/16 
f 12/10/17 13/7/17 17/7/17 16/10/17 
f 13/7/18 11/8/18 15/8/18 17/7/18 
f 15/8/19 14/9/19 8/9/19 7/8/19 
f 14/9/20 16/10/20 9/10/20 8/9/20 
f 16/10/21 17/7/21 6/7/21 9/10/21 
f 17/7/22 15/8/22 7/8/22 6/7/22 
# 18 polygons

