# 3ds Max Wavefront OBJ Exporter v0.97b - (c)2007 guruware
# File Created: 25.08.2016 17:38:12

mtllib ???6.mtl

#
# object Cylinder001
#

v  0.0000 -0.0414 0.2931
v  0.1375 -0.0414 0.0550
v  0.1375 0.0414 0.0550
v  0.0000 0.0414 0.2931
v  -0.0823 -0.0414 -0.2123
v  -0.0823 0.0414 -0.2123
v  0.0823 0.0414 -0.2123
v  0.0823 -0.0414 -0.2123
v  -0.1375 -0.0414 0.0550
v  -0.1375 0.0414 0.0550
v  0.0823 -0.0414 0.0550
v  -0.0823 -0.0414 0.0550
v  0.0823 0.0414 0.0550
v  -0.0823 0.0414 0.0550
# 14 vertices

vn 0.0000 -0.0000 1.0000
vn 0.8660 -0.0000 -0.5000
vn -0.0000 -0.0000 -1.0000
vn -0.8660 0.0000 -0.5000
vn -0.0000 -1.0000 -0.0000
vn 0.0000 1.0000 -0.0000
vn -0.0000 0.0000 -1.0000
vn -1.0000 -0.0000 0.0000
vn 1.0000 0.0000 -0.0000
# 9 vertex normals

vt 0.7500 0.0000 1.0000
vt 1.0833 0.0000 1.0000
vt 1.0833 1.0000 1.0000
vt 0.7500 1.0000 1.0000
vt 0.3498 0.0000 1.0000
vt 0.3498 1.0000 1.0000
vt 0.1502 1.0000 1.0000
vt 0.1502 0.0000 1.0000
vt 0.4167 0.0000 1.0000
vt 0.4167 1.0000 1.0000
vt 0.2408 0.2500 -0.2500
vt 0.0670 0.2500 -0.2500
vt 0.5000 1.0000 -0.2500
vt 0.7592 0.2500 -0.2500
vt 0.9330 0.2500 -0.2500
vt 0.5000 1.0000 0.2500
vt 0.0670 0.2500 0.2500
vt 0.2408 0.2500 0.2500
vt 0.7592 0.2500 0.2500
vt 0.9330 0.2500 0.2500
vt 0.0833 1.0000 1.0000
vt 0.0833 0.0000 1.0000
# 22 texture coords

g Cylinder001
usemtl 01___Default
s 8
f 1/1/1 2/2/2 3/3/2 4/4/1 
f 5/5/3 6/6/3 7/7/3 8/8/3 
f 9/9/4 1/1/1 4/4/1 10/10/4 
s 1
f 11/11/5 2/12/5 1/13/5 12/14/5 
f 9/15/5 12/14/5 1/13/5 
f 4/16/6 3/17/6 13/18/6 14/19/6 
f 4/16/6 14/19/6 10/20/6 
s 8
f 9/9/4 10/10/4 14/6/7 12/5/3 
f 3/21/2 2/22/2 11/8/7 13/7/3 
s off
f 11/8/5 12/5/5 5/5/5 8/8/5 
f 12/5/8 14/6/8 6/6/8 5/5/8 
f 14/6/6 13/7/6 7/7/6 6/6/6 
f 13/7/9 11/8/9 8/8/9 7/7/9 
# 11 polygons - 2 triangles

